<svg width="32" height="32" viewBox="0 0 32 32" fill="none" xmlns="http://www.w3.org/2000/svg">
<path d="M28.3911 0H3.55556C1.6 0 0 1.6 0 3.55556V28.4444C0 30.4 1.6 32 3.55556 32H28.3911C30.3467 32 31.9467 30.4 31.9467 28.4444V3.55556C31.9467 2.61256 31.5721 1.70819 30.9053 1.0414C30.2385 0.374602 29.3341 0 28.3911 0ZM25.5644 24.8533C25.5111 24.8711 25.44 24.8889 25.3867 24.8889H21.3689C21.1949 24.8918 21.024 24.8426 20.8783 24.7476C20.7325 24.6525 20.6186 24.516 20.5511 24.3556L16.1778 14.1511C16.1422 14.0444 16.0356 13.9911 15.9467 14.0267C15.9183 14.0374 15.8925 14.054 15.871 14.0755C15.8496 14.0969 15.8329 14.1227 15.8222 14.1511L13.1022 20.64C13.0489 20.7644 13.1022 20.8889 13.2267 20.9422C13.2622 20.96 13.28 20.96 13.3156 20.96H16.3022C16.48 20.96 16.6578 21.0667 16.7289 21.2444L18.0444 24.16C18.1689 24.4267 18.0267 24.7467 17.76 24.8711C17.6533 24.8711 17.5822 24.8889 17.5111 24.8889H6.63111C6.36444 24.8889 6.13333 24.6578 6.13333 24.3911C6.13333 24.32 6.15111 24.2667 6.16889 24.1956L13.1022 7.69778C13.2444 7.34222 13.6 7.11111 13.9733 7.11111H17.9733C18.3644 7.11111 18.7022 7.34222 18.8444 7.69778L25.8133 24.1956C25.9378 24.4444 25.8311 24.7467 25.5644 24.8533Z" fill="black"/>
</svg>
