<svg width="32" height="32" viewBox="0 0 32 32" fill="none" xmlns="http://www.w3.org/2000/svg">
<path d="M25.7478 31.9202H20.9494C20.582 31.961 20.2113 31.8796 19.8948 31.6884C19.5784 31.4973 19.3338 31.2071 19.1989 30.8629C17.4224 27.3098 15.4899 23.8138 13.8794 20.1308C12.4595 17.0687 11.8242 13.7014 12.0306 10.3325C12.237 6.96361 13.2787 3.69905 15.0617 0.833239C15.2808 0.458132 15.7549 0 16.114 0C16.4791 0 16.9063 0.500144 17.1043 0.891256C21.9447 10.571 26.7891 20.2558 31.6395 29.9466C32.3587 31.338 32.0246 31.9052 30.4312 31.9212L25.7478 31.9202ZM6.31522 31.9202H1.38181C-0.00359102 31.9202 -0.31168 31.363 0.298496 30.1437C2.78921 25.2202 5.25792 20.3018 7.70162 15.3994C8.36881 14.008 8.89497 14.008 9.82223 15.1594C11.5546 17.1808 12.7656 19.5957 13.3495 22.193C13.9335 24.7904 13.8726 27.4912 13.1722 30.0596C12.7141 31.8201 12.464 31.9352 10.6875 31.9352L6.31522 31.9202Z" fill="black"/>
</svg>
