<svg width="32" height="22" viewBox="0 0 32 22" fill="none" xmlns="http://www.w3.org/2000/svg">
<path d="M11.9316 6.3128V4.40586C12.1196 4.39486 12.3066 4.38586 12.4946 4.38586C17.7234 4.21887 21.1503 8.88072 21.1503 8.88072C21.1503 8.88072 17.4535 14.0156 13.4836 14.0156C12.9603 14.0157 12.4403 13.9333 11.9426 13.7716V7.97475C13.9786 8.22374 14.3906 9.11971 15.6035 11.1576L18.3224 8.87072C18.3224 8.87072 16.3385 6.2668 12.9896 6.2668C12.6367 6.26191 12.2837 6.2776 11.9326 6.3138L11.9316 6.3128ZM11.9316 0V2.84891L12.4946 2.81791C19.7594 2.56692 24.5102 8.77673 24.5102 8.77673C24.5102 8.77673 19.0674 15.3955 13.4016 15.3955C12.9126 15.3955 12.4266 15.3485 11.9426 15.2665V17.0315C12.3436 17.0785 12.7546 17.1145 13.1556 17.1145C18.4314 17.1145 22.2503 14.4175 25.9472 11.2346C26.5562 11.7296 29.0671 12.9226 29.5871 13.4386C26.0782 16.3865 17.8904 18.7504 13.2506 18.7504C12.8173 18.7518 12.3844 18.7291 11.9536 18.6824V21.1673H32V0H11.9316ZM11.9316 13.7716V15.2765C7.05178 14.4055 5.69682 9.32871 5.69682 9.32871C5.69682 9.32871 8.04075 6.73979 11.9316 6.3128V7.96375H11.9206C9.87969 7.71476 8.28074 9.6247 8.28074 9.6247C8.28074 9.6247 9.18771 12.8376 11.9316 13.7716V13.7716ZM3.2759 9.11471C3.2759 9.11471 6.16081 4.85485 11.9426 4.40686V2.84991C5.53583 3.37089 0 8.78673 0 8.78673C0 8.78673 3.1359 17.8544 11.9316 18.6824V17.0315C5.47883 16.2285 3.2759 9.11471 3.2759 9.11471V9.11471Z" fill="black"/>
</svg>
