<svg width="28" height="32" viewBox="0 0 28 32" fill="none" xmlns="http://www.w3.org/2000/svg">
<path d="M26.9768 11.5384C27.1917 12.5382 27.1651 13.7512 26.9058 15.1808C25.8722 20.4696 22.5068 23.1122 16.8131 23.1122H16.0281C15.738 23.1104 15.4574 23.2154 15.2396 23.407C15.0139 23.6025 14.8637 23.8708 14.8151 24.1653L14.7423 24.501L13.7602 30.6795L13.7229 30.9477C13.6722 31.2443 13.5165 31.5129 13.2843 31.7042C13.0651 31.8971 12.7823 32.0021 12.4904 31.999H8.00971C7.89756 32.0049 7.78563 31.9838 7.68334 31.9375C7.58104 31.8911 7.49138 31.8209 7.42187 31.7326C7.35127 31.6425 7.30054 31.5385 7.27299 31.4274C7.24544 31.3163 7.24171 31.2006 7.26204 31.088C7.37037 30.4255 7.52488 29.4221 7.73621 28.0884C7.944 26.7564 8.10206 25.7548 8.21039 25.0888C8.31872 24.4229 8.47678 23.423 8.69345 22.0964C8.90834 20.768 9.06995 19.7699 9.17473 19.1039C9.23333 18.6635 9.49262 18.445 9.94371 18.445H12.2809C13.8668 18.4681 15.268 18.3438 16.4987 18.0703C18.5801 17.605 20.2886 16.749 21.6241 15.497C22.8406 14.3657 23.7606 12.9005 24.3946 11.105C24.6823 10.2703 24.8865 9.4765 25.0197 8.72882C25.0304 8.65601 25.0446 8.61161 25.0641 8.5974C25.0783 8.57787 25.1032 8.57254 25.1263 8.57787C25.1648 8.59508 25.2017 8.61589 25.2364 8.64003C26.167 9.34685 26.753 10.3112 26.9768 11.5384V11.5384ZM23.908 6.50179C23.908 7.77514 23.6345 9.17991 23.0822 10.7179C22.1285 13.4919 20.3348 15.3673 17.6886 16.3441C16.3424 16.8218 14.8435 17.0687 13.1866 17.0989C13.1866 17.1095 12.652 17.1113 11.5811 17.1113L9.97746 17.0989C8.78402 17.0989 8.08252 17.6672 7.86941 18.8109C7.84632 18.905 7.34018 22.0608 6.35098 28.2749C6.33677 28.3921 6.26573 28.456 6.13609 28.456H0.87041C0.746314 28.4586 0.623182 28.4337 0.50987 28.383C0.396559 28.3324 0.295884 28.2572 0.215086 28.163C0.131252 28.0703 0.0693638 27.9599 0.034009 27.84C-0.00134588 27.7201 -0.00926077 27.5937 0.0108522 27.4704L4.15236 1.19527C4.2054 0.859035 4.37977 0.553883 4.64252 0.337484C4.89869 0.116993 5.22625 -0.00292116 5.56423 5.40636e-05H16.2448C16.6497 5.40636e-05 17.2304 0.0781957 17.9834 0.232703C18.7435 0.381882 19.4059 0.577236 19.9778 0.802781C21.2529 1.28939 22.2261 2.02463 22.8992 2.99963C23.5723 3.97995 23.908 5.14319 23.908 6.50179V6.50179Z" fill="black"/>
</svg>
