<svg width="32" height="32" viewBox="0 0 32 32" fill="none" xmlns="http://www.w3.org/2000/svg">
<path d="M16.144 7.08366L19.4143 3.08531C23.5118 3.30861 27.3278 4.28508 30.8029 5.87992L30.6086 5.79932C29.5206 7.22315 28.0691 8.32769 26.4068 8.99694L26.3394 9.02073C26.1465 7.11933 24.8146 6.65554 20.5863 6.65554L16.1453 31.7106L11.6779 6.65026C7.47609 6.65026 6.14419 7.11801 5.94995 9.01808C4.27144 8.36132 2.80274 7.26116 1.70055 5.835L1.68338 5.81254C4.9616 4.29565 8.7776 3.31654 12.7945 3.09456L12.8751 3.09059L16.1453 7.08366H16.144ZM16.144 1.93046C16.2854 1.92782 16.4519 1.92782 16.6184 1.92782C21.8601 1.92782 26.8428 3.03774 31.3433 5.03559L31.1121 4.94442C31.4465 4.38293 31.7337 3.79468 31.9709 3.18573L32 3.10249C27.308 1.16938 21.8641 0.0330333 16.1572 0H16.144C10.6066 0.0225812 5.12534 1.11183 0 3.20819L0.28805 3.10381C0.584028 3.83715 0.881328 4.44496 1.21695 5.03031L1.17598 4.95367C5.45446 3.04038 10.4478 1.9265 15.7027 1.9265L16.1678 1.92914H16.144V1.93046Z" fill="black"/>
</svg>
